<svg xmlns="http://www.w3.org/2000/svg" width="40.893" height="40.893" viewBox="0 0 40.893 40.893"><g transform="translate(-167.107 -20.059)"><path d="M194.339,32.229a.315.315,0,0,0,.086-.257,3.8,3.8,0,0,0-3.172-3.858C187.737,27.6,181.994,27,181.994,27c-.086,0,0,0,0,.086,0,0,4.458,3.6,7.373,5.744,2.658,1.886,4.972-.6,4.972-.6" transform="translate(12.032 16.206)" fill="#c1d832"/><path d="M196.054,23.551v-.257a3.826,3.826,0,0,0-4.458-2.315c-3.429.857-9,2.4-9,2.4-.086,0,0,0,.086.086,0,0,5.572,1.629,9,2.486,3.172.772,4.372-2.4,4.372-2.4" transform="translate(11.947 17.083)" fill="#c1d832"/><path d="M173.794,45.539h.257a3.691,3.691,0,0,0,2.229-4.286c-.772-3.343-2.315-8.659-2.315-8.659,0-.086,0,0-.086.086,0,0-1.543,5.315-2.4,8.659-.772,3,2.315,4.2,2.315,4.2" transform="translate(13.545 15.412)" fill="#c1d832"/><path d="M182.187,44a.3.3,0,0,0,.171-.086,3.671,3.671,0,0,0,.429-4.8c-2.057-2.743-5.487-7.115-5.487-7.115v.086s.6,5.572,1.114,8.916c.514,3.086,3.772,3,3.772,3" transform="translate(12.697 15.498)" fill="#c1d832"/><path d="M188.981,39.459c.086,0,.086-.086.171-.171a3.707,3.707,0,0,0-1.457-4.629c-2.915-1.8-7.8-4.458-7.8-4.458-.086,0,0,0,0,.086,0,0,2.658,4.887,4.458,7.8,1.629,2.743,4.629,1.372,4.629,1.372" transform="translate(12.332 15.749)" fill="#c1d832"/><path d="M194.525,14.571a.3.3,0,0,0-.086-.171,3.788,3.788,0,0,0-4.972-.429c-2.829,2.057-7.373,5.658-7.373,5.658h.086s5.744-.6,9.259-1.2c3.172-.429,3.086-3.858,3.086-3.858" transform="translate(12.018 18.176)" fill="#c1d832"/><path d="M189.9,6.916a.184.184,0,0,0-.171-.171,3.811,3.811,0,0,0-4.8,1.457c-1.886,3-4.629,8.058-4.629,8.058,0,.086,0,0,.086,0,0,0,5.058-2.743,8.144-4.629C191.273,10,189.9,6.916,189.9,6.916" transform="translate(12.269 19.144)" fill="#c1d832"/><path d="M182.915,1.886a.315.315,0,0,0-.257-.086A3.8,3.8,0,0,0,178.8,4.972c-.514,3.515-1.2,9.259-1.2,9.259,0,.086,0,0,.086,0,0,0,3.6-4.458,5.744-7.373a3.865,3.865,0,0,0-.514-4.972" transform="translate(12.654 19.802)" fill="#c1d832"/><path d="M174.151,0h-.257a3.826,3.826,0,0,0-2.315,4.458c.857,3.429,2.4,9,2.4,9,0,.086,0,0,.086-.086,0,0,1.629-5.572,2.486-9,.772-3.172-2.4-4.372-2.4-4.372" transform="translate(13.531 20.059)" fill="#c1d832"/><path d="M165.271,1.8a.3.3,0,0,0-.171.086,3.788,3.788,0,0,0-.429,4.972c2.057,2.829,5.658,7.373,5.658,7.373,0,.086.086,0,0-.086,0,0-.6-5.744-1.2-9.259C168.7,1.714,165.271,1.8,165.271,1.8" transform="translate(14.61 19.802)" fill="#c1d832"/><path d="M157.616,6.845a.184.184,0,0,0-.171.171,3.811,3.811,0,0,0,1.457,4.8c3,1.886,8.058,4.629,8.058,4.629.086,0,0,0,0-.086,0,0-2.743-5.058-4.629-8.058-1.629-2.829-4.715-1.457-4.715-1.457" transform="translate(15.578 19.13)" fill="#c1d832"/><path d="M152.486,14.388a.315.315,0,0,0-.086.257,3.8,3.8,0,0,0,3.172,3.858c3.515.514,9.259,1.2,9.259,1.2.086,0,0,0,0-.086,0,0-4.458-3.6-7.373-5.744-2.658-1.972-4.972.514-4.972.514" transform="translate(16.25 18.188)" fill="#c1d832"/><path d="M150.6,23.28v.257a3.826,3.826,0,0,0,4.458,2.315c3.429-.857,9-2.4,9-2.4.086,0,0,0-.086-.086,0,0-5.572-1.629-9-2.486-3.086-.772-4.372,2.4-4.372,2.4" transform="translate(16.507 17.096)" fill="#c1d832"/></g></svg>