<svg xmlns="http://www.w3.org/2000/svg" width="170" height="63.268" viewBox="0 0 170 63.268"><path d="M194.339,32.229a.315.315,0,0,0,.086-.257,3.8,3.8,0,0,0-3.172-3.858C187.737,27.6,181.994,27,181.994,27c-.086,0,0,0,0,.086,0,0,4.458,3.6,7.373,5.744,2.658,1.886,4.972-.6,4.972-.6" transform="translate(-25.967 -3.853)" fill="#c1d832"/><path d="M196.054,23.551v-.257a3.826,3.826,0,0,0-4.458-2.315c-3.429.857-9,2.4-9,2.4-.086,0,0,0,.086.086,0,0,5.572,1.629,9,2.486,3.172.772,4.372-2.4,4.372-2.4" transform="translate(-26.054 -2.976)" fill="#c1d832"/><path d="M61.758,65.587H60.472l.686-4.286-2.658-6h1.457L62.1,60.187,65.615,55.3H66.9l-4.458,6Z" transform="translate(-8.349 -7.892)" fill="#fff"/><path d="M18,39.616A8.979,8.979,0,0,1,9.344,45.96,9.131,9.131,0,1,1,9.173,27.7,9.022,9.022,0,0,1,18,34.215H15.517a6.7,6.7,0,0,0-6.258-4.286A6.465,6.465,0,0,0,4.372,31.9,6.915,6.915,0,0,0,2.4,36.873a6.739,6.739,0,0,0,6.858,6.944A6.421,6.421,0,0,0,15.517,39.7H18Z" transform="translate(0 -3.953)" fill="#fff"/><path d="M72.129,55.729h-1.2V58.9h-.514V55.729H69.3V55.3h2.829Z" transform="translate(-9.89 -7.892)" fill="#fff"/><path d="M76.543,58.9h-.429v-3h0l-1.029,3h-.429l-1.029-3.086h0V58.9H73.2V55.3h.686l.857,2.572a3.372,3.372,0,0,1,.171.514h0a2.181,2.181,0,0,1,.171-.6l.857-2.486h.6Z" transform="translate(-10.447 -7.892)" fill="#fff"/><path d="M.6,65.587,2.315,55.3h6.43l-.171,1.029H3.429l-.6,3.343H7.287L7.115,60.7H2.657l-.6,3.858H7.63l-.171,1.029Z" transform="translate(-0.086 -7.892)" fill="#fff"/><path d="M18.944,65.587H17.915l-4.029-8.83-1.457,8.83H11.4L13.115,55.3h1.457l3.686,8.23L19.63,55.3h1.029Z" transform="translate(-1.627 -7.892)" fill="#fff"/><path d="M23.9,65.587,25.7,55.3h6.43l-.171,1.029H26.729l-.514,3.343h4.372L30.415,60.7H26.043l-.686,3.858H30.93l-.171,1.029Z" transform="translate(-3.411 -7.892)" fill="#fff"/><path d="M36.943,60.029h2.4q2.829,0,2.829-2.057c0-1.114-.772-1.715-2.229-1.715h-2.4Zm2.915,1.114h-3l-.772,4.544H34.8L36.515,55.4h3.258a4.628,4.628,0,0,1,2.143.343,2.028,2.028,0,0,1,1.114.943,2.89,2.89,0,0,1,.429,1.457,3.186,3.186,0,0,1-.686,1.886,2.649,2.649,0,0,1-1.715.943l1.457,4.715H41.144Z" transform="translate(-4.966 -7.906)" fill="#fff"/><path d="M51.244,60.4h3.944l-.857,5.315h-.686l-.257-1.286A3.027,3.027,0,0,1,50.644,65.8a3.663,3.663,0,0,1-2.829-1.286A5.227,5.227,0,0,1,46.7,61.172a7.43,7.43,0,0,1,1.286-4.286A4.008,4.008,0,0,1,51.5,55a3.666,3.666,0,0,1,3.772,2.915l-1.114.429A2.71,2.71,0,0,0,51.5,56.029a2.764,2.764,0,0,0-2.572,1.629,7.6,7.6,0,0,0-.943,3.686,3.84,3.84,0,0,0,.772,2.572,2.563,2.563,0,0,0,1.972.943A2.314,2.314,0,0,0,52.615,64a4.766,4.766,0,0,0,1.029-2.572H50.986Z" transform="translate(-6.665 -7.849)" fill="#fff"/><rect width="2.4" height="23.833" transform="translate(21.346 17.746)" fill="#fff"/><path d="M47.388,35.687a6.786,6.786,0,0,0-13.459,0ZM34.015,37.573A6.666,6.666,0,0,0,40.787,44a6.482,6.482,0,0,0,6-3.6h2.486a9.13,9.13,0,1,1-8.487-12.6,8.8,8.8,0,0,1,6.344,2.486,9.189,9.189,0,0,1,2.743,7.373H34.015Z" transform="translate(-4.524 -3.967)" fill="#fff"/><path d="M57.9,36.859a6.763,6.763,0,0,0,6.944,6.858,6.529,6.529,0,0,0,6.258-4.2,6.1,6.1,0,0,0,.6-2.743,7.108,7.108,0,0,0-.514-2.743,6.578,6.578,0,0,0-6.344-4.115A6.809,6.809,0,0,0,57.9,36.859Zm16.117,8.659h-2.4v-3.6A7.805,7.805,0,0,1,64.5,45.946c-5.658,0-9-4.372-9-9.173a8.88,8.88,0,0,1,9-9.173,7.688,7.688,0,0,1,7.115,4.115v-3.6h2.4Z" transform="translate(-7.921 -3.939)" fill="#fff"/><path d="M81.2,28.214h2.229v2.829A6.017,6.017,0,0,1,89,27.7v2.315h-.257c-3.343,0-5.229,2.057-5.229,6v9.43H81.2Z" transform="translate(-11.588 -3.953)" fill="#fff"/><path d="M101.859,45.617H99.373L92.6,28.3h2.486l5.572,14.4,5.572-14.4h2.486Z" transform="translate(-13.215 -4.039)" fill="#fff"/><rect width="2.4" height="17.317" transform="translate(97.988 24.261)" fill="#fff"/><path d="M136.774,35.687a6.786,6.786,0,0,0-13.459,0Zm-13.459,1.886A6.666,6.666,0,0,0,130.087,44a6.482,6.482,0,0,0,6-3.6h2.486a9.13,9.13,0,1,1-8.487-12.6,8.8,8.8,0,0,1,6.344,2.486,9.189,9.189,0,0,1,2.743,7.373h-15.86Z" transform="translate(-17.268 -3.967)" fill="#fff"/><path d="M143.1,28.3h2.486l4.8,14.231L154.5,29.843h1.972l4.2,12.688,4.8-14.231h2.4L161.96,45.617h-2.4l-4.115-12.6-4.029,12.6H149.1Z" transform="translate(-20.422 -4.039)" fill="#fff"/><path d="M117.415,22.857a2.057,2.057,0,1,1-2.057-2.057,2.086,2.086,0,0,1,2.057,2.057" transform="translate(-16.169 -2.968)" fill="#fff"/><path d="M173.794,45.539h.257a3.691,3.691,0,0,0,2.229-4.286c-.772-3.343-2.315-8.659-2.315-8.659,0-.086,0,0-.086.086,0,0-1.543,5.315-2.4,8.659-.772,3,2.315,4.2,2.315,4.2" transform="translate(-24.455 -4.647)" fill="#c1d832"/><path d="M182.187,44a.3.3,0,0,0,.171-.086,3.671,3.671,0,0,0,.429-4.8c-2.057-2.743-5.487-7.115-5.487-7.115v.086s.6,5.572,1.114,8.916c.514,3.086,3.772,3,3.772,3" transform="translate(-25.303 -4.561)" fill="#c1d832"/><path d="M188.981,39.459c.086,0,.086-.086.171-.171a3.707,3.707,0,0,0-1.457-4.629c-2.915-1.8-7.8-4.458-7.8-4.458-.086,0,0,0,0,.086,0,0,2.658,4.887,4.458,7.8,1.629,2.743,4.629,1.372,4.629,1.372" transform="translate(-25.668 -4.31)" fill="#c1d832"/><path d="M194.525,14.571a.3.3,0,0,0-.086-.171,3.788,3.788,0,0,0-4.972-.429c-2.829,2.057-7.373,5.658-7.373,5.658h.086s5.744-.6,9.259-1.2c3.172-.429,3.086-3.858,3.086-3.858" transform="translate(-25.982 -1.883)" fill="#c1d832"/><path d="M189.9,6.916a.184.184,0,0,0-.171-.171,3.811,3.811,0,0,0-4.8,1.457c-1.886,3-4.629,8.058-4.629,8.058,0,.086,0,0,.086,0,0,0,5.058-2.743,8.144-4.629C191.273,10,189.9,6.916,189.9,6.916" transform="translate(-25.731 -0.915)" fill="#c1d832"/><path d="M182.915,1.886a.315.315,0,0,0-.257-.086A3.8,3.8,0,0,0,178.8,4.972c-.514,3.515-1.2,9.259-1.2,9.259,0,.086,0,0,.086,0,0,0,3.6-4.458,5.744-7.373a3.865,3.865,0,0,0-.514-4.972" transform="translate(-25.346 -0.257)" fill="#c1d832"/><path d="M174.151,0h-.257a3.826,3.826,0,0,0-2.315,4.458c.857,3.429,2.4,9,2.4,9,0,.086,0,0,.086-.086,0,0,1.629-5.572,2.486-9,.772-3.172-2.4-4.372-2.4-4.372" transform="translate(-24.469)" fill="#c1d832"/><path d="M165.271,1.8a.3.3,0,0,0-.171.086,3.788,3.788,0,0,0-.429,4.972c2.057,2.829,5.658,7.373,5.658,7.373,0,.086.086,0,0-.086,0,0-.6-5.744-1.2-9.259C168.7,1.714,165.271,1.8,165.271,1.8" transform="translate(-23.39 -0.257)" fill="#c1d832"/><path d="M157.616,6.845a.184.184,0,0,0-.171.171,3.811,3.811,0,0,0,1.457,4.8c3,1.886,8.058,4.629,8.058,4.629.086,0,0,0,0-.086,0,0-2.743-5.058-4.629-8.058-1.629-2.829-4.715-1.457-4.715-1.457" transform="translate(-22.422 -0.929)" fill="#c1d832"/><path d="M152.486,14.388a.315.315,0,0,0-.086.257,3.8,3.8,0,0,0,3.172,3.858c3.515.514,9.259,1.2,9.259,1.2.086,0,0,0,0-.086,0,0-4.458-3.6-7.373-5.744-2.658-1.972-4.972.514-4.972.514" transform="translate(-21.749 -1.871)" fill="#c1d832"/><path d="M150.6,23.28v.257a3.826,3.826,0,0,0,4.458,2.315c3.429-.857,9-2.4,9-2.4.086,0,0,0-.086-.086,0,0-5.572-1.629-9-2.486-3.086-.772-4.372,2.4-4.372,2.4" transform="translate(-21.493 -2.963)" fill="#c1d832"/><path d="M89.357,55.1h.257a1.169,1.169,0,0,1,1.029.429,1.448,1.448,0,0,1,.171.429v.171L90.557,58.1l-.086,1.543c0,1.457.257,4.286.686,8.487a17.827,17.827,0,0,0,3.515-1.372,16.75,16.75,0,0,1,6.687-2.057,4.153,4.153,0,0,1,1.543.257v1.2c0,.086-.429.171-1.372.257a21.361,21.361,0,0,0-3.515,1.114,43.4,43.4,0,0,0-3.944,2.057,7.075,7.075,0,0,1-3,.772c-1.114-.086-1.715-.171-1.715-.429A65.831,65.831,0,0,1,88.5,59.044V55.957a1.318,1.318,0,0,0,.343-.514.749.749,0,0,1,.514-.343" transform="translate(-12.63 -7.863)" fill="#c1d832"/><path d="M105.786,57.3h.171a1.169,1.169,0,0,1,1.029.429l.086.343h0c0,.429-.429.772-1.372.857h-.257c-.686-.086-.943-.257-.943-.6v-.343a1.242,1.242,0,0,1,1.286-.686m.086,3.258c.429,0,.686.086.686.343a24.793,24.793,0,0,1,.429,4.544v.943L106.9,69.9a1.048,1.048,0,0,1-.772.257l-.257.257h0c-.171,0-.343-.171-.514-.429,0,.171,0,.171-.086.171a2.477,2.477,0,0,1-.514-1.886l.257-4.029a18.73,18.73,0,0,1-.086-2.4c0-.772.257-1.286.943-1.286" transform="translate(-14.914 -8.177)" fill="#c1d832"/><path d="M114.887,62.3h.257c.343,0,.6.257.857.686a2.794,2.794,0,0,0-.257.857l.086.257c-.429.343-1.029,1.8-1.543,4.286-.514,1.629-1.2,2.486-1.972,2.486-.686,0-1.543-.857-2.4-2.658-1.2-1.8-1.715-2.829-1.715-3.258V64.7c0-.686.6-1.029,1.715-1.029l1.715,3.258.257.429c.686-.429,1.2-1.629,1.715-3.429.343-1.029.686-1.543.943-1.543Z" transform="translate(-15.442 -8.891)" fill="#c1d832"/><path d="M120.8,61.6c1.114,0,2.058.772,2.743,2.229a2.767,2.767,0,0,1,.171,1.029c0,1.114-.857,1.972-2.572,2.658h0a1.91,1.91,0,0,0,1.715,1.114c.943,0,2.057-.772,3.172-2.4.686-.772,1.2-1.114,1.543-1.114h.086l.086.086v.514c0,.086.086.086.171.171.171,0,.257-.086.257-.343h.086a4.419,4.419,0,0,1-.943,1.8,5.906,5.906,0,0,0-.257.686c-.343.086-.429.171-.429.343a4.761,4.761,0,0,1-2.658,2.143,4.423,4.423,0,0,1-.943.171h-.343c-1.629,0-3.172-1.114-4.715-3.429v-.171l-.171-2.572v-.257a2,2,0,0,1,1.029-2.057,4.709,4.709,0,0,1,1.972-.6m-1.029,3.172a1.577,1.577,0,0,0,.514,1.372,1.23,1.23,0,0,0,1.286-1.286,1.322,1.322,0,0,0-.857-1.372h-.257c-.343,0-.514.086-.514.343a3.082,3.082,0,0,0-.171.943" transform="translate(-16.812 -8.791)" fill="#c1d832"/><path d="M139.715,52.9h.257c1.372,0,2.572.943,3.429,2.743a4.746,4.746,0,0,1,.429,1.715,7.043,7.043,0,0,1-.772.943.554.554,0,0,1-.429.171h0c-.343,0-.772-.6-1.2-1.715a2.5,2.5,0,0,0-1.114-1.543l-.171-.086a2.8,2.8,0,0,0-1.543.943,6.9,6.9,0,0,0-1.286,4.458v.343a10.982,10.982,0,0,0,2.4,7.287,2.223,2.223,0,0,0,1.543.772c1.2,0,2.315-1.457,3.343-4.458a13.382,13.382,0,0,0,.6-2.743q-.9.129-3.858.772v-.086c0-.171-.171-.343-.6-.514-.171-.171-.257-.257-.257-.429h0c0-.857,1.029-1.372,3.086-1.715a21.486,21.486,0,0,1,3.172-.257c.343,0,.514.086.514.171.086.343.086.686.171,1.114,0,1.457-.686,3.772-1.972,6.773a6.718,6.718,0,0,1-3.086,3.086,1.7,1.7,0,0,1-.943.171h-.086a5,5,0,0,1-3.429-1.543A13.727,13.727,0,0,1,135,61.13v-.343a9.947,9.947,0,0,1,2.143-6.687,3.473,3.473,0,0,1,2.572-1.2" transform="translate(-19.266 -7.55)" fill="#c1d832"/><path d="M156.015,61.7h.086c.686,0,1.029.171,1.029.429.086.343.171.6.343.686V62.9a8.456,8.456,0,0,0-4.2,4.715,8.77,8.77,0,0,0-.6,2.829,3.393,3.393,0,0,1-1.286.429q0-.386-.772-.772c0-.343-.343-1.8-.943-4.458a5.276,5.276,0,0,1-.171-1.629v-.343a.89.89,0,0,1,.943-.6h.086c.686,0,1.029.429,1.2,1.372v.514a28.889,28.889,0,0,0,2.143-2.229,3.308,3.308,0,0,1,2.143-1.029" transform="translate(-21.336 -8.805)" fill="#c1d832"/><path d="M161.9,61.6c1.114,0,2.057.772,2.743,2.229a2.767,2.767,0,0,1,.171,1.029c0,1.114-.857,1.972-2.572,2.658h0a1.91,1.91,0,0,0,1.715,1.114c.943,0,2.057-.772,3.172-2.4.686-.772,1.2-1.114,1.543-1.114h.086l.086.086v.514c0,.086.086.086.171.171.171,0,.257-.086.257-.343h.086a4.419,4.419,0,0,1-.943,1.8,5.909,5.909,0,0,0-.257.686c-.343.086-.429.171-.429.343a4.761,4.761,0,0,1-2.658,2.143,4.423,4.423,0,0,1-.943.171h-.343c-1.629,0-3.172-1.114-4.715-3.429v-.171l-.171-2.572v-.257a2,2,0,0,1,1.029-2.057,4.709,4.709,0,0,1,1.972-.6m-1.029,3.172a1.577,1.577,0,0,0,.514,1.372,1.23,1.23,0,0,0,1.286-1.286,1.322,1.322,0,0,0-.857-1.372h-.257c-.343,0-.514.086-.514.343a3.082,3.082,0,0,0-.171.943" transform="translate(-22.677 -8.791)" fill="#c1d832"/><path d="M173.3,61.6c1.114,0,2.057.772,2.743,2.229a2.767,2.767,0,0,1,.171,1.029c0,1.114-.857,1.972-2.572,2.658h0a1.91,1.91,0,0,0,1.715,1.114c.943,0,2.057-.772,3.172-2.4.686-.772,1.2-1.114,1.543-1.114h.086l.086.086v.514c0,.086.086.086.171.171.171,0,.257-.086.257-.343h.086a4.419,4.419,0,0,1-.943,1.8,5.9,5.9,0,0,0-.257.686c-.343.086-.429.171-.429.343a4.761,4.761,0,0,1-2.658,2.143,4.423,4.423,0,0,1-.943.171h-.343c-1.629,0-3.172-1.114-4.715-3.429v-.171l-.171-2.572v-.257a2,2,0,0,1,1.029-2.057,5.1,5.1,0,0,1,1.972-.6m-1.029,3.172a1.577,1.577,0,0,0,.514,1.372,1.23,1.23,0,0,0,1.286-1.286,1.322,1.322,0,0,0-.857-1.372h-.257c-.343,0-.514.086-.514.343a3.082,3.082,0,0,0-.171.943" transform="translate(-24.304 -8.791)" fill="#c1d832"/><path d="M186.844,60.7c.686.171,1.029.257,1.029.343a10.556,10.556,0,0,1,.772,2.486,59.576,59.576,0,0,0,1.029,6c.086,0,.086.171.171.6v.086c0,.343-.257.514-.686.514h-.086c-.686,0-1.029-.171-1.029-.429a7.9,7.9,0,0,1-.772-2.4l-.686-4.286h0a22.086,22.086,0,0,0-2.658,5.4c-.429.857-.686,1.286-.686,1.372,0-.086-.086-.086-.343-.171h-.514a.227.227,0,0,1-.257-.257l-.429-.686a22.935,22.935,0,0,0,.429-5.744c.429-.257.686-.429.686-.514a.184.184,0,0,1,.171-.171c.772.086,1.2.257,1.2.343l-.086.257h0a8.92,8.92,0,0,0,1.2-1.629c.514-.686,1.029-1.114,1.543-1.114" transform="translate(-25.931 -8.663)" fill="#c1d832"/></svg>